:SAMPLES-PER-SECOND 30
:FULLY-SPECIFIED
:DEGREES
21
root  84.0256 39.3675 1.71636 -112.059 -87.5703 112.034
RightUpLeg  -1.61412 -7.60555 -5.93817
RightLeg  5.76455 12.6052 -0.866672
RightFoot  -4.65604 -0.125957 1.59714
RightToes  -6.40286e-010 0 -3.6325e-017
Spine  11.4525 1.32578 0.746606
Spine1  -21.3452 1.32041 -1.74521
HEad  6.7664 -6.71452 -3.66525
LeftShoulder1  0.749706 -0.146485 -13.5491
LeftArm  -16.615 7.19503 -4.14997
LeftForeArm  12.2845 -5.29522 -0.629162
LeftHand  -0.0235752 7.13086 0.830063
RightShoulder  0.593874 -0.307081 11.513
RightArm  -0.151228 -2.1352 -2.27606
RightForeArm  2.35301 2.61207 -0.10909
RightHand  0.0786038 6.31952 0.438458
LeftUpLeg  -0.799189 6.45421 2.36208
LeftLeg  1.82404 1.27423 -0.0890669
LeftFoot  -0.775078 0.0500714 -0.464331
LeftToes  1.32783e-010 1.73515e-011 1.59258e-011
22
root  84.0136 39.3568 1.71249 -110.036 -87.6414 110.008
RightUpLeg  -1.64172 -7.635 -5.90814
RightLeg  5.92376 12.5104 -0.826057
RightFoot  -4.78371 -0.131003 1.67542
RightToes  -6.40286e-010 0 -3.6325e-017
Spine  11.5323 1.37032 0.71312
Spine1  -21.4677 1.35997 -1.55347
HEad  6.85346 -6.82715 -3.89113
LeftShoulder1  0.757869 -0.168623 -13.6565
LeftArm  -16.6508 7.05962 -4.30382
LeftForeArm  11.9632 -5.2773 -0.633469
LeftHand  -0.0229382 7.12248 0.844639
RightShoulder  0.588096 -0.34059 11.53
RightArm  0.0832786 -2.47589 -2.42556
RightForeArm  2.51542 2.86278 -0.0792107
RightHand  0.104868 6.25853 0.704631
LeftUpLeg  -0.758294 6.38218 2.35004
LeftLeg  1.72372 1.38038 -0.0151532
LeftFoot  -0.895356 0.0505137 -0.471205
LeftToes  1.32783e-010 1.73515e-011 1.59258e-011
23
root  84.0009 39.3654 1.70468 -104.888 -87.6023 104.834
RightUpLeg  -1.50069 -7.7402 -6.04308
RightLeg  5.81748 12.4184 -0.811543
RightFoot  -4.77882 -0.124655 1.57694
RightToes  -6.40286e-010 0 -3.6325e-017
Spine  11.7105 1.35263 0.474846
Spine1  -21.706 1.32579 -1.39461
HEad  7.13175 -7.24484 -4.33485
LeftShoulder1  0.783569 -0.260141 -13.8576
LeftArm  -16.5648 7.0037 -4.31326
LeftForeArm  12.3759 -5.14168 -0.67668
LeftHand  -0.0240985 7.17613 0.777995
RightShoulder  0.583659 -0.362592 11.5187
RightArm  0.399975 -2.68681 -2.49257
RightForeArm  2.05668 2.81142 0.0106754
RightHand  0.105787 6.3505 0.696227
LeftUpLeg  -0.80203 6.30188 2.26463
LeftLeg  1.89068 1.16593 0.00714974
LeftFoot  -0.827352 0.0617431 -0.645721
LeftToes  1.32783e-010 1.73515e-011 1.59258e-011
24
root  83.9641 39.3649 1.69438 -101.544 -87.6016 101.518
RightUpLeg  -1.44498 -7.82105 -6.09353
RightLeg  5.8268 12.3537 -0.775035
RightFoot  -4.8731 -0.123467 1.5585
RightToes  -6.40286e-010 0 -3.6325e-017
Spine  11.4286 1.25029 0.415837
Spine1  -21.4727 1.22746 -1.31012
HEad  7.06871 -7.01976 -4.20181
LeftShoulder1  0.789067 -0.294731 -13.8084
LeftArm  -16.5397 7.12416 -4.46504
LeftForeArm  13.466 -5.07484 -0.672169
LeftHand  -0.0279045 7.34743 0.689352
RightShoulder  0.588677 -0.323112 11.4352
RightArm  0.1938 -2.68967 -2.2561
RightForeArm  2.45843 2.38977 -0.117664
RightHand  0.150272 6.61419 1.0725
LeftUpLeg  -0.788234 6.25054 2.22642
LeftLeg  1.87948 1.0343 0.0282128
LeftFoot  -0.863066 0.0588968 -0.601486
LeftToes  1.32783e-010 1.73515e-011 1.59258e-011
25
root  83.9326 39.3683 1.68433 -103.175 -87.5432 103.05
RightUpLeg  -1.32959 -7.93721 -6.18537
RightLeg  5.8934 12.5747 -0.672669
RightFoot  -4.84703 -0.118772 1.48566
RightToes  -6.40286e-010 0 -3.6325e-017
Spine  11.2929 1.17923 0.480453
Spine1  -21.0314 1.17158 -1.4127
HEad  6.69201 -6.71312 -3.9497
LeftShoulder1  0.766602 -0.178924 -13.8547
LeftArm  -16.4076 7.19064 -4.35183
LeftForeArm  13.81 -5.1233 -0.744242
LeftHand  -0.0290854 7.40881 0.647178
RightShoulder  0.582144 -0.347363 11.364
RightArm  -0.0693332 -2.4418 -1.7532
RightForeArm  2.34137 1.96761 -0.178349
RightHand  0.0129011 5.63555 -0.19587
LeftUpLeg  -0.608353 6.20133 2.18528
LeftLeg  1.85612 1.13227 0.0793917
LeftFoot  -0.861773 0.0639027 -0.679285
LeftToes  1.32783e-010 1.73515e-011 1.59258e-011
26
root  83.922 39.3674 1.6835 -101.211 -87.5469 101.059
RightUpLeg  -1.41804 -8.08708 -6.28832
RightLeg  6.28226 12.8723 -0.483008
RightFoot  -4.89562 -0.116935 1.45715
RightToes  -6.40286e-010 0 -3.6325e-017
Spine  11.3888 1.00041 0.760295
Spine1  -21.0195 1.02006 -1.64662
HEad  6.85884 -6.61581 -4.12047
LeftShoulder1  0.798915 -0.34483 -13.7924
LeftArm  -16.0964 7.54407 -4.06986
LeftForeArm  13.213 -5.25774 -0.862487
LeftHand  -0.0292335 7.44369 0.680379
RightShoulder  0.594123 -0.281029 11.3521
RightArm  -0.237661 -2.46656 -1.37977
RightForeArm  2.8402 1.84346 -0.259499
RightHand  0.143926 7.00465 0.996114
LeftUpLeg  -0.495628 6.08737 2.12739
LeftLeg  1.66316 1.23973 0.153408
LeftFoot  -0.832141 0.0633872 -0.671273
LeftToes  1.32783e-010 1.73515e-011 1.59258e-011
27
root  83.9214 39.353 1.68923 -92.5078 -87.5411 92.3135
RightUpLeg  -1.39357 -8.30266 -6.44546
RightLeg  6.49384 12.6887 -0.352517
RightFoot  -5.1319 -0.125013 1.58248
RightToes  -6.40286e-010 0 -3.6325e-017
Spine  11.449 0.885806 0.602554
Spine1  -20.9678 0.902559 -1.3291
HEad  6.68749 -6.68348 -4.23517
LeftShoulder1  0.783417 -0.281785 -13.7209
LeftArm  -16.0048 7.33924 -4.36777
LeftForeArm  12.4093 -5.20453 -0.948053
LeftHand  -0.0288884 7.45617 0.709415
RightShoulder  0.59067 -0.31939 11.4843
RightArm  -0.0832398 -2.49848 -1.58265
RightForeArm  2.22569 1.79092 -0.195038
RightHand  0.191082 7.16219 1.40152
LeftUpLeg  -0.476213 5.83947 1.93772
LeftLeg  1.54613 1.17077 0.294378
LeftFoot  -0.835808 0.0545439 -0.533838
LeftToes  1.32783e-010 1.73515e-011 1.59258e-011
28
root  83.8927 39.3702 1.66842 -95.9033 -87.5173 95.8766
RightUpLeg  -1.38082 -8.22677 -6.37952
RightLeg  6.09992 12.6597 -0.435797
RightFoot  -4.98189 -0.121607 1.52964
RightToes  -6.40286e-010 0 -3.6325e-017
Spine  11.2153 0.930733 0.545673
Spine1  -20.9328 0.938776 -1.40677
HEad  6.70196 -6.4399 -4.25318
LeftShoulder1  0.741279 -0.0828986 -13.6908
LeftArm  -16.1781 7.2335 -4.49337
LeftForeArm  11.8909 -5.21835 -0.868521
LeftHand  -0.0278289 7.43509 0.72969
RightShoulder  0.573333 -0.452361 11.7532
RightArm  0.0643317 -2.12629 -1.76218
RightForeArm  1.69014 1.61957 -0.0713648
RightHand  0.129902 6.76527 0.888298
LeftUpLeg  -0.563319 5.99271 2.04463
LeftLeg  1.52502 1.04089 0.1885
LeftFoot  -0.683705 0.0624484 -0.656682
LeftToes  1.32783e-010 1.73515e-011 1.59258e-011
29
root  83.867 39.3627 1.65468 -102.519 -87.6114 102.552
RightUpLeg  -1.55241 -8.0807 -6.16084
RightLeg  6.30439 12.817 -0.434786
RightFoot  -4.93884 -0.110433 1.35627
RightToes  -6.40286e-010 0 -3.6325e-017
Spine  11.4187 1.06708 0.671939
Spine1  -21.4329 1.07004 -1.32804
HEad  7.07786 -6.2341 -4.31329
LeftShoulder1  0.745212 -0.075751 -13.8562
LeftArm  -16.4223 7.19431 -4.31391
LeftForeArm  12.0143 -5.03422 -0.701295
LeftHand  -0.0256803 7.35712 0.720081
RightShoulder  0.587589 -0.384307 11.8063
RightArm  0.34569 -2.32386 -1.958
RightForeArm  1.58996 1.75968 0.00276937
RightHand  0.127581 6.71103 0.871353
LeftUpLeg  -0.46039 6.11288 2.2046
LeftLeg  1.32378 1.38573 0.157571
LeftFoot  -0.811401 0.054876 -0.539467
LeftToes  1.32783e-010 1.73515e-011 1.59258e-011
30
root  83.8651 39.3596 1.64583 -100.609 -87.5243 100.63
RightUpLeg  -1.54819 -8.11286 -6.23907
RightLeg  6.32461 12.7493 -0.444066
RightFoot  -4.97684 -0.103312 1.24553
RightToes  -6.40286e-010 0 -3.6325e-017
Spine  11.7063 1.09029 0.476501
Spine1  -21.8398 1.07538 -1.20822
HEad  6.73314 -6.61008 -4.17502
LeftShoulder1  0.744998 -0.0799068 -13.8233
LeftArm  -16.511 7.07371 -4.41392
LeftForeArm  12.4704 -4.94219 -0.666642
LeftHand  -0.0267202 7.41908 0.680357
RightShoulder  0.558184 -0.561221 11.9604
RightArm  0.510337 -2.2057 -2.17926
RightForeArm  1.49114 1.85588 0.0919446
RightHand  0.1117 6.69894 0.719663
LeftUpLeg  -0.532977 6.01401 2.10818
LeftLeg  1.50408 1.3005 0.204812
LeftFoot  -0.840675 0.0648592 -0.652089
LeftToes  1.32783e-010 1.73515e-011 1.59258e-011
31
root  83.8444 39.3671 1.60958 -110.449 -87.5776 110.635
RightUpLeg  -1.64825 -7.72909 -5.88924
RightLeg  6.06486 12.7428 -0.643833
RightFoot  -4.91185 -0.1156 1.43657
RightToes  -6.40286e-010 0 -3.6325e-017
Spine  11.4433 1.28521 0.57925
Spine1  -21.6948 1.26742 -1.34019
HEad  6.70525 -6.74571 -4.20658
LeftShoulder1  0.7582 -0.153445 -13.7615
LeftArm  -16.5672 7.09259 -4.51587
LeftForeArm  14.1792 -5.00328 -0.661003
LeftHand  -0.0309415 7.60355 0.556849
RightShoulder  0.554821 -0.577964 11.9583
RightArm  0.367389 -2.19155 -2.11482
RightForeArm  1.78678 1.86924 0.0285441
RightHand  0.128551 6.94427 0.850796
LeftUpLeg  -0.714099 6.30851 2.43898
LeftLeg  1.75389 1.34708 0.0844637
LeftFoot  -0.94847 0.0903651 -0.916872
LeftToes  1.32783e-010 1.73515e-011 1.59258e-011
32
root  83.8442 39.3526 1.61786 -104.717 -87.6291 104.768
RightUpLeg  -1.58212 -7.89553 -5.99984
RightLeg  6.35269 12.6849 -0.517635
RightFoot  -5.07149 -0.108328 1.32608
RightToes  -6.40286e-010 0 -3.6325e-017
Spine  11.6202 1.00303 0.759178
Spine1  -21.5702 1.0127 -1.37621
HEad  6.74282 -6.5584 -4.41751
LeftShoulder1  0.780653 -0.264719 -13.744
LeftArm  -16.5161 7.45111 -4.30687
LeftForeArm  13.5829 -5.28444 -0.652505
LeftHand  -0.0297423 7.58651 0.585545
RightShoulder  0.577333 -0.417309 11.6581
RightArm  -0.115608 -2.30768 -1.54436
RightForeArm  2.38448 1.98101 -0.164614
RightHand  0.0987142 6.54574 0.613241
LeftUpLeg  -0.61905 6.10108 2.29663
LeftLeg  1.73054 1.39429 0.240274
LeftFoot  -1.04689 0.0841973 -0.797869
LeftToes  1.32783e-010 1.73515e-011 1.59258e-011
33
root  83.8121 39.3665 1.59314 -109.098 -87.5874 109.154
RightUpLeg  -1.49511 -7.85145 -5.9518
RightLeg  6.2001 12.7974 -0.51949
RightFoot  -4.98731 -0.102961 1.24698
RightToes  -6.40286e-010 0 -3.6325e-017
Spine  11.4172 1.08137 0.652581
Spine1  -21.2702 1.08525 -1.27981
HEad  7.03008 -5.89558 -4.33364
LeftShoulder1  0.769791 -0.19406 -13.8563
LeftArm  -16.4075 7.49292 -4.30598
LeftForeArm  14.5484 -5.49783 -0.752991
LeftHand  -0.0325653 7.73607 0.512613
RightShoulder  0.561402 -0.505725 11.6862
RightArm  -0.0415416 -2.24669 -1.44436
RightForeArm  2.80905 2.31413 -0.105459
RightHand  0.108256 6.69712 0.688445
LeftUpLeg  -0.572989 6.27278 2.43875
LeftLeg  1.83353 1.28181 0.145651
LeftFoot  -0.998683 0.0878952 -0.873497
LeftToes  1.32783e-010 1.73515e-011 1.59258e-011
34
root  83.8021 39.3586 1.59354 -105.27 -87.673 105.345
RightUpLeg  -1.54674 -7.91013 -5.9429
RightLeg  6.38377 12.6926 -0.451555
RightFoot  -5.09559 -0.0998276 1.20426
RightToes  -6.40286e-010 0 -3.6325e-017
Spine  11.2973 0.959274 0.686722
Spine1  -21.1071 0.972875 -1.12702
HEad  7.4201 -5.84799 -4.52673
LeftShoulder1  0.747743 -0.0684417 -13.9803
LeftArm  -16.377 7.35375 -4.29625
LeftForeArm  13.5902 -5.60784 -0.806388
LeftHand  -0.0310108 7.73791 0.564337
RightShoulder  0.558783 -0.536121 11.8024
RightArm  -0.152665 -2.30555 -1.29608
RightForeArm  2.78839 2.59694 -0.119509
RightHand  0.10864 6.68041 0.688845
LeftUpLeg  -0.537526 6.2229 2.42003
LeftLeg  1.66315 1.32465 0.183429
LeftFoot  -1.03349 0.0755933 -0.719546
LeftToes  1.32783e-010 1.73515e-011 1.59258e-011
35
root  83.7954 39.3606 1.57364 -106.862 -87.5943 106.972
RightUpLeg  -1.4568 -7.85084 -5.94045
RightLeg  6.06917 12.6326 -0.54412
RightFoot  -5.06297 -0.0981195 1.18524
RightToes  -6.40286e-010 0 -3.6325e-017
Spine  11.1499 1.03116 0.474184
Spine1  -20.8312 1.0302 -1.06961
HEad  7.0859 -6.42317 -4.39203
LeftShoulder1  0.735661 -0.000430174 -14.0483
LeftArm  -16.5715 7.27621 -4.45667
LeftForeArm  12.3063 -5.65131 -0.707603
LeftHand  -0.0270876 7.65397 0.657313
RightShoulder  0.563439 -0.529551 11.9331
RightArm  -0.536262 -2.64135 -1.00381
RightForeArm  2.1184 2.99967 -0.243343
RightHand  0.0347429 6.03758 0.021461
LeftUpLeg  -0.657666 6.25014 2.41757
LeftLeg  1.91499 1.26992 0.188341
LeftFoot  -1.06625 0.0849929 -0.899755
LeftToes  1.32783e-010 1.73515e-011 1.59258e-011
